Coordinates
version=1
nRows=21
nColumns=33
inDegrees=yes

Units are S.I. units (second, meters, Newtons, ...)
Angles are in degrees.

endheader
time	ground_thorax_rot_x	ground_thorax_rot_y	ground_thorax_rot_z	ground_thorax_tx	ground_thorax_ty	ground_thorax_tz	clav_prot_r	clav_elev_r	scapula_abduction_r	scapula_elevation_r	scapula_upward_rot_r	scapula_winging_r	shoulder_elv_r	plane_of_elev_r	axial_rot_r	elbow_flexion_r	pro_sup_r	wrist_flex_r	wrist_dev_r	clav_prot_l	clav_elev_l	scapula_abduction_l	scapula_elevation_l	scapula_upward_rot_l	scapula_winging_l	shoulder_elv_l	plane_of_elev_l	axial_rot_l	elbow_flexion_l	pro_sup_l	wrist_flex_l	wrist_dev_l
     12.75000000	    -39.92665900	      6.22247670	      1.73046765	     46.15187657	    770.49433395	    -42.33323163	      0.14423122	    -45.00000000	     45.00000000	    -45.00000000	     45.00000000	  -2280.80625785	  -2626.80043190	    144.35563753	   -179.99999979	   1428.71394240	   -290.66018725	     19.93987961	     14.25922596	     15.98358208	     27.53922635	    -42.63244965	    -45.00000000	    -45.00000000	  -3170.81380073	   -262.66565821	     20.42079682	   -179.99999979	   1795.74817536	    501.77189777	     10.40646667	    -11.53493483
     12.76000000	    -39.94550578	      6.08941264	      1.79234863	     43.66011135	    770.89750815	    -42.31323100	      0.28478875	    -45.00000000	     45.00000000	    -45.00000000	     45.00000000	  -2280.90283365	  -2626.57691915	    144.29214545	   -179.99999979	   1428.54078587	   -290.64969540	     19.85844997	     14.26103909	     15.73063367	     27.47489830	    -42.37076836	    -45.00000000	    -45.00000000	  -3170.67365763	   -262.68391320	     20.37360201	   -179.99999979	   1795.75858809	    502.57415483	     10.57298970	    -11.69616737
     12.77000000	    -39.94045895	      6.01554819	      1.81601424	     41.16107982	    771.33224342	    -42.28357026	      0.40844491	    -45.00000000	     45.00000000	    -45.00000000	     45.00000000	  -2280.99437605	  -2626.35185414	    144.24365467	   -179.99999979	   1428.48794131	   -290.64249155	     19.84846046	     14.26862143	     15.46998961	     27.50077319	    -42.08831855	    -45.00000000	    -45.00000000	  -3170.58146742	   -262.64925280	     20.40756536	   -179.99999979	   1795.84240863	    503.33424292	     10.54232630	    -11.76258656
     12.78000000	    -39.97896735	      5.90572738	      1.85910334	     38.65585905	    771.79947692	    -42.24292110	      0.58950012	    -45.00000000	     45.00000000	    -45.00000000	     45.00000000	  -2281.06445651	  -2626.11845050	    144.22822913	   -179.99999979	   1428.35388952	   -290.63313060	     19.79678379	     14.28401307	     15.31697785	     27.47311489	    -41.88022447	    -45.00000000	    -45.00000000	  -3170.42252861	   -262.65061158	     20.32794276	   -179.99999979	   1795.83998668	    504.15479203	     10.59091897	    -11.87670106
     12.79000000	    -39.96628472	      5.81127657	      1.89529774	     36.15353029	    772.29883169	    -42.19024472	      0.69213897	    -45.00000000	     45.00000000	    -45.00000000	     44.87215399	  -2281.12293767	  -2625.92023226	    144.18276895	   -179.99999979	   1428.30527420	   -290.62506651	     19.78184965	     14.29134606	     15.05157688	     27.50288556	    -41.61200690	    -45.00000000	    -45.00000000	  -3170.31925337	   -262.64809541	     20.33950900	   -179.99999979	   1795.90215228	    504.92274926	     10.59017606	    -11.97530727
     12.80000000	    -39.97717800	      5.63970259	      2.00172823	     33.65381377	    772.83124019	    -42.12484208	      0.90964631	    -45.00000000	     45.00000000	    -45.00000000	     44.63949507	  -2281.14864549	  -2625.71569579	    144.16845648	   -179.99999979	   1428.21932307	   -290.61899685	     19.74718573	     14.30160195	     14.84734370	     27.48649122	    -41.34368457	    -45.00000000	    -45.00000000	  -3170.19783485	   -262.65940584	     20.27889379	   -179.99999979	   1795.92647865	    505.76226484	     10.62286089	    -12.07029952
     12.81000000	    -39.96283492	      5.44099017	      2.14590055	     31.15922709	    773.39801243	    -42.04616608	      1.11352357	    -45.00000000	     45.00000000	    -45.00000000	     44.31517361	  -2281.14556428	  -2625.49931021	    144.15808299	   -179.99999979	   1428.16976443	   -290.61835929	     19.72276067	     14.30885458	     14.54573804	     27.48307368	    -41.04025595	    -45.00000000	    -45.00000000	  -3170.09881223	   -262.68452313	     20.24205764	   -179.99999979	   1795.97425754	    506.66340919	     10.64578823	    -12.17456665
     12.82000000	    -39.94679900	      5.04159558	      2.48404161	     28.66808067	    774.00171831	    -41.95388518	      1.42292934	    -45.00000000	     45.00000000	    -45.00000000	     43.61390178	  -2281.09771383	  -2625.29590714	    144.16098001	   -179.99999979	   1428.13260409	   -290.63120595	     19.72900625	     14.32966857	     14.20606383	     27.46984845	    -40.62092460	    -45.00000000	    -45.00000000	  -3170.01904132	   -262.74835317	     20.16656633	   -179.99999979	   1796.04725488	    507.67147191	     10.69078389	    -12.26401757
     12.83000000	    -39.91002019	      4.52192494	      2.93978739	     26.18015650	    774.64521174	    -41.84786042	      1.81033190	    -45.00000000	     45.00000000	    -45.00000000	     42.71960916	  -2281.02727932	  -2625.07984598	    144.16738169	   -179.99999979	   1428.12124725	   -290.65483695	     19.74204135	     14.34483517	     13.73525745	     27.44527798	    -40.10017532	    -45.00000000	    -45.00000000	  -3169.96416504	   -262.81246602	     20.10354503	   -179.99999979	   1796.16231205	    508.82694594	     10.73833506	    -12.35724159
     12.84000000	    -39.86466041	      3.88706186	      3.50714796	     23.69407614	    775.33063997	    -41.72882252	      2.26762940	    -45.00000000	     45.00000000	    -45.00000000	     41.63745887	  -2280.93583724	  -2624.86118423	    144.17458689	   -179.99999979	   1428.10704325	   -290.68231899	     19.75388346	     14.35995190	     13.25020421	     27.41911424	    -39.52853917	    -45.00000000	    -45.00000000	  -3169.90042505	   -262.90096574	     20.01013805	   -179.99999979	   1796.27220671	    510.17908603	     10.79976226	    -12.47000190
     12.85000000	    -39.80791918	      3.16905023	      4.15400108	     21.20920311	    776.05875921	    -41.59815777	      2.77330743	    -45.00000000	     45.00000000	    -45.00000000	     40.42421469	  -2280.82162322	  -2624.63701429	    144.19377056	   -179.99999979	   1428.09507920	   -290.71320890	     19.76822784	     14.37599242	     12.70194303	     27.39095216	    -38.91425056	    -45.00000000	    -45.00000000	  -3169.82445355	   -262.99411864	     19.90525099	   -179.99999979	   1796.38626805	    511.73067452	     10.85920090	    -12.61453220
     12.86000000	    -39.74376010	      2.33893502	      4.90981719	     18.72589417	    776.82844162	    -41.45800199	      3.34213932	    -45.00000000	     45.00000000	    -45.00000000	     39.05723685	  -2280.69457836	  -2624.41466616	    144.22140078	   -179.99999979	   1428.06711443	   -290.74732538	     19.77443734	     14.39424578	     12.14454582	     27.36255294	    -38.27071112	    -45.00000000	    -45.00000000	  -3169.72170456	   -263.11921034	     19.75418136	   -179.99999979	   1796.48026083	    513.52509169	     10.92674892	    -12.79566476
     12.87000000	    -39.65684992	      1.48650003	      5.68664350	     16.24387462	    777.63749066	    -41.31039024	      3.93014925	    -45.00000000	     45.00000000	    -45.00000000	     37.62845763	  -2280.54671112	  -2624.18124846	    144.25607204	   -179.99999979	   1428.06055483	   -290.79634000	     19.80332462	     14.41746870	     11.53342117	     27.34188298	    -37.58100341	    -45.00000000	    -45.00000000	  -3169.61298962	   -263.20505881	     19.64702868	   -179.99999979	   1796.59415422	    515.48450062	     10.97059600	    -13.00855996
     12.88000000	    -39.53069275	      0.73153532	      6.37190357	     13.76510317	    778.48280198	    -41.15749680	      4.48356737	    -45.00000000	     45.00000000	    -45.00000000	     36.26629166	  -2280.38372579	  -2623.93812429	    144.27340307	   -179.99999979	   1428.11032882	   -290.87175412	     19.86308442	     14.43599673	     10.89904411	     27.34104468	    -36.91529653	    -45.00000000	    -45.00000000	  -3169.50193959	   -263.22369372	     19.60983393	   -179.99999979	   1796.74305656	    517.44089978	     10.97264907	    -13.23437095
     12.89000000	    -39.44930068	     -0.14112377	      7.16197246	     11.29279066	    779.36100366	    -41.00110332	      5.08551044	    -45.00000000	     45.00000000	    -45.00000000	     34.85805199	  -2280.26054459	  -2623.72999995	    144.29874980	   -179.99999979	   1428.06824621	   -290.95859789	     19.86406276	     14.45726084	     10.37113238	     27.33591849	    -36.27238184	    -45.00000000	    -45.00000000	  -3169.33679374	   -263.30587442	     19.45590698	   -179.99999979	   1796.83007872	    519.56235449	     11.00946437	    -13.47332427
     12.90000000	    -39.30623732	     -0.93288157	      7.90450448	      8.83412590	    780.26787426	    -40.84292897	      5.66240110	    -45.00000000	     45.00000000	    -45.00000000	     33.45549827	  -2280.08672681	  -2623.48191643	    144.33876605	   -179.99999979	   1428.08662765	   -291.07881108	     19.91358422	     14.48853023	      9.78150845	     27.34174072	    -35.62978347	    -45.00000000	    -45.00000000	  -3169.18686281	   -263.35349223	     19.38451650	   -179.99999979	   1796.92871451	    521.68229783	     11.00751162	    -13.73003338
     12.91000000	    -39.18726128	     -1.55989354	      8.47647362	      6.38579502	    781.20292560	    -40.68380374	      6.17253136	    -45.00000000	     45.00000000	    -45.00000000	     32.21625599	  -2279.92455774	  -2623.26577437	    144.37210104	   -179.99999979	   1428.14930567	   -291.23243858	     20.00155334	     14.51660324	      9.18362702	     27.36981513	    -35.05920894	    -45.00000000	    -45.00000000	  -3169.03610162	   -263.32633781	     19.38001585	   -179.99999979	   1797.08771507	    523.63714204	     10.96523236	    -13.96135390
     12.92000000	    -39.04658687	     -2.16346719	      9.04041147	      3.95686086	    782.16131601	    -40.52554443	      6.66254537	    -45.00000000	     45.00000000	    -45.00000000	     31.07894478	  -2279.80241586	  -2623.03728458	    144.36672557	   -179.99999979	   1428.16500553	   -291.40507197	     20.03988694	     14.53727520	      8.72846634	     27.39946738	    -34.53386403	    -45.00000000	    -45.00000000	  -3168.86263208	   -263.30148209	     19.35704382	   -179.99999979	   1797.17249681	    525.50465102	     10.95077980	    -14.17881183
     12.93000000	    -38.96986397	     -2.89131808	      9.68564239	      1.54989054	    783.14012933	    -40.36972517	      7.16621681	    -45.00000000	     45.00000000	    -45.00000000	     29.92513952	  -2279.66759419	  -2622.82273566	    144.40786525	   -179.99999979	   1428.10034031	   -291.57970672	     20.03929279	     14.57772969	      8.30241487	     27.41769484	    -34.03971710	    -45.00000000	    -45.00000000	  -3168.61966922	   -263.38474179	     19.18605483	   -179.99999979	   1797.16599420	    527.39344171	     10.94664225	    -14.42840864
     12.94000000	    -38.83455705	     -3.29646421	     10.08575663	     -0.83186962	    784.13635410	    -40.21777947	      7.59091063	    -45.00000000	     45.00000000	    -45.00000000	     28.88683686	  -2279.48144650	  -2622.59128838	    144.44955171	   -179.99999979	   1428.22721863	   -291.77735166	     20.17679297	     14.61445775	      7.76746226	     27.46647183	    -33.58963066	    -45.00000000	    -45.00000000	  -3168.47152128	   -263.29052026	     19.26424997	   -179.99999979	   1797.34677499	    529.02313181	     10.87255641	    -14.60965553
     12.95000000	    -38.71808072	     -3.85465122	     10.58519508	     -3.18800372	    785.14905342	    -40.07058753	      8.01692857	    -45.00000000	     45.00000000	    -45.00000000	     27.94324055	  -2279.39876494	  -2622.38160052	    144.40776775	   -179.99999979	   1428.16626499	   -291.94973705	     20.15821338	     14.63979343	      7.44878673	     27.50328886	    -33.16102822	    -45.00000000	    -45.00000000	  -3168.23989239	   -263.31042333	     19.17870533	   -179.99999979	   1797.33340145	    530.57245651	     10.87523788	    -14.80532810
